<svg width="315" height="393" viewBox="0 0 315 393" fill="none" xmlns="http://www.w3.org/2000/svg">
<rect x="25" y="111" width="266" height="269" fill="#664B3A"/>
<rect x="93" y="111" width="130" height="269" fill="#6F543D"/>
<circle cx="158" cy="136" r="132" fill="#664B3A"/>
<circle cx="159" cy="121" r="66" fill="#6F543D"/>
<rect x="93" y="118" width="132" height="155" fill="#6F543D"/>
<rect width="14" height="14" transform="matrix(-1 0 0 1 95 125)" fill="#6F543D"/>
<rect width="14" height="14" transform="matrix(-1 0 0 1 70 169)" fill="#6F543D"/>
<rect width="14" height="14" transform="matrix(-1 0 0 1 91 154)" fill="#6F543D"/>
<rect width="14" height="14" transform="matrix(-1 0 0 1 84 190)" fill="#6F543D"/>
<rect width="14" height="14" transform="matrix(-1 0 0 1 61 215)" fill="#6F543D"/>
<rect width="14" height="14" transform="matrix(-1 0 0 1 95 213)" fill="#6F543D"/>
<rect width="14" height="14" transform="matrix(-1 0 0 1 77 248)" fill="#6F543D"/>
<rect width="14" height="14" transform="matrix(-1 0 0 1 98 274.001)" fill="#6F543D"/>
<rect width="14" height="14" transform="matrix(-1 0 0 1 49 291.001)" fill="#6F543D"/>
<rect width="14" height="14" transform="matrix(-1 0 0 1 63 116)" fill="#6F543D"/>
<rect width="14" height="14" transform="matrix(-1 0 0 1 105 134)" fill="#664B3A"/>
<rect width="14" height="14" transform="matrix(-1 0 0 1 102 174)" fill="#664B3A"/>
<rect width="14" height="14" transform="matrix(-1 0 0 1 123 204)" fill="#664B3A"/>
<rect width="14" height="14" transform="matrix(-1 0 0 1 25 111)" fill="#664B3A"/>
<rect width="14" height="14" transform="matrix(-1 0 0 1 32 147)" fill="#664B3A"/>
<rect width="14" height="14" transform="matrix(-1 0 0 1 21 201)" fill="#664B3A"/>
<rect width="14" height="14" transform="matrix(-1 0 0 1 30 252)" fill="#664B3A"/>
<rect width="14" height="14" transform="matrix(-1 0 0 1 14 280.001)" fill="#664B3A"/>
<rect width="14" height="14" transform="matrix(-1 0 0 1 30 162)" fill="#3F8431"/>
<rect width="14" height="14" transform="matrix(-1 0 0 1 85 84.9998)" fill="#6F543D"/>
<rect width="14" height="14" transform="matrix(-1 0 0 1 78 32)" fill="#6F543D"/>
<rect width="14" height="14" transform="matrix(-1 0 0 1 54 37)" fill="#664B3A"/>
<rect width="14" height="14" transform="matrix(-1 0 0 1 122 68)" fill="#664B3A"/>
<rect width="14" height="14" transform="matrix(-1 0 0 1 122 68)" fill="#664B3A"/>
<rect width="14" height="14" transform="matrix(-1 0 0 1 204 88)" fill="#664B3A"/>
<rect width="14" height="14" transform="matrix(-1 0 0 1 213 68)" fill="#664B3A"/>
<rect width="14" height="14" transform="matrix(-1 0 0 1 175 44)" fill="#664B3A"/>
<rect width="14" height="14" transform="matrix(-1 0 0 1 177 0)" fill="#664B3A"/>
<rect width="14" height="14" transform="matrix(-1 0 0 1 228 19)" fill="#664B3A"/>
<rect width="14" height="14" transform="matrix(-1 0 0 1 118 7)" fill="#664B3A"/>
<rect width="14" height="14" transform="matrix(-1 0 0 1 47 63)" fill="#664B3A"/>
<rect width="14" height="14" transform="matrix(-1 0 0 1 45 77.9998)" fill="#3F8431"/>
<rect width="14" height="14" transform="matrix(1 0 0 -1 225 53)" fill="#6F543D"/>
<rect width="14" height="14" transform="matrix(1 0 0 -1 232 106)" fill="#6F543D"/>
<rect width="14" height="14" transform="matrix(1 0 0 -1 270 111)" fill="#664B3A"/>
<rect width="14" height="14" transform="matrix(1 0 0 -1 263 74.9998)" fill="#664B3A"/>
<rect width="14" height="14" transform="matrix(1 0 0 -1 265 60)" fill="#3F8431"/>
<rect width="14" height="14" transform="matrix(1 0 0 -1 274 106)" fill="#3F8431"/>
<rect width="14" height="14" transform="matrix(1 0 0 -1 207 23)" fill="#3F8431"/>
<rect width="14" height="14" transform="matrix(1 0 0 -1 84 39)" fill="#3F8431"/>
<rect width="14" height="14" transform="matrix(-0.00128261 -0.999999 -0.999999 0.00128261 199.018 84.0743)" fill="#6F543D"/>
<rect width="14" height="14" transform="matrix(-0.00128261 -0.999999 -0.999999 0.00128261 252.009 77.0063)" fill="#6F543D"/>
<rect width="14" height="14" transform="matrix(-0.00128261 -0.999999 -0.999999 0.00128261 256.96 39)" fill="#664B3A"/>
<rect width="14" height="14" transform="matrix(-0.00128261 -0.999999 -0.999999 0.00128261 220.969 46.0462)" fill="#664B3A"/>
<rect width="14" height="14" transform="matrix(-0.00128261 -0.999999 -0.999999 0.00128261 205.967 44.0654)" fill="#3F8431"/>
<rect x="142.942" y="61.0744" width="14" height="14" transform="rotate(-89.9265 142.942 61.0744)" fill="#6F543D"/>
<rect x="181" y="69" width="14" height="14" transform="rotate(-89.9265 181 69)" fill="#6F543D"/>
<rect x="185" y="19" width="14" height="14" transform="rotate(-89.9265 185 19)" fill="#6F543D"/>
<rect x="89.9512" y="54.0064" width="14" height="14" transform="rotate(-89.9265 89.9512 54.0064)" fill="#6F543D"/>
<rect x="85" y="16" width="14" height="14" transform="rotate(-89.9265 85 16)" fill="#664B3A"/>
<rect x="120.991" y="23.0462" width="14" height="14" transform="rotate(-89.9265 120.991 23.0462)" fill="#664B3A"/>
<rect x="135" y="14" width="14" height="14" transform="rotate(-89.9265 135 14)" fill="#3F8431"/>
<rect width="14" height="14" transform="matrix(-1 0 0 1 28 227)" fill="#3F8431"/>
<rect width="14" height="14" transform="matrix(-1 0 0 1 35 273.001)" fill="#3F8431"/>
<rect width="14" height="14" transform="matrix(-1 0 0 1 35 333.001)" fill="#3F8431"/>
<rect width="14" height="14" transform="matrix(-1 0 0 1 28 366.001)" fill="#3F8431"/>
<rect width="14" height="14" transform="matrix(1 0 0 -1 284 380.001)" fill="#3F8431"/>
<rect width="14" height="14" transform="matrix(1 0 0 -1 286 315.001)" fill="#3F8431"/>
<rect width="14" height="14" transform="matrix(1 0 0 -1 279 269.001)" fill="#3F8431"/>
<rect width="14" height="14" transform="matrix(1 0 0 -1 279 209)" fill="#3F8431"/>
<rect width="14" height="14" transform="matrix(1 0 0 -1 286 176)" fill="#3F8431"/>
<rect width="14" height="14" transform="matrix(-1 0 0 1 28 345.001)" fill="#664B3A"/>
<rect width="14" height="14" transform="matrix(1 0 0 -1 290 359.001)" fill="#664B3A"/>
<rect width="14" height="14" transform="matrix(1 0 0 -1 283 323.001)" fill="#664B3A"/>
<rect width="14" height="14" transform="matrix(1 0 0 -1 294 269.001)" fill="#664B3A"/>
<rect width="14" height="14" transform="matrix(1 0 0 -1 285 218)" fill="#664B3A"/>
<rect width="14" height="14" transform="matrix(1 0 0 -1 301 190)" fill="#664B3A"/>
<rect width="14" height="14" transform="matrix(1 0 0 -1 287 125)" fill="#664B3A"/>
<rect width="14" height="14" transform="matrix(-1 0 0 1 102 234)" fill="#664B3A"/>
<rect width="14" height="14" transform="matrix(-1 0 0 1 116 305.001)" fill="#664B3A"/>
<rect width="14" height="14" transform="matrix(-1 0 0 1 95 335.001)" fill="#6F543D"/>
<rect width="14" height="14" transform="matrix(-1 0 0 1 70 379.001)" fill="#6F543D"/>
<rect width="14" height="14" transform="matrix(-1 0 0 1 91 364.001)" fill="#6F543D"/>
<rect width="14" height="14" transform="matrix(-1 0 0 1 63 326.001)" fill="#6F543D"/>
<rect width="14" height="14" transform="matrix(-1 0 0 1 105 344.001)" fill="#664B3A"/>
<rect width="14" height="14" transform="matrix(1 0 0 -1 223 389)" fill="#6F543D"/>
<rect width="14" height="14" transform="matrix(1 0 0 -1 248 345)" fill="#6F543D"/>
<rect width="14" height="14" transform="matrix(1 0 0 -1 227 360)" fill="#6F543D"/>
<rect width="14" height="14" transform="matrix(1 0 0 -1 234 324)" fill="#6F543D"/>
<rect width="14" height="14" transform="matrix(1 0 0 -1 257 299)" fill="#6F543D"/>
<rect width="14" height="14" transform="matrix(1 0 0 -1 223 301)" fill="#6F543D"/>
<rect width="14" height="14" transform="matrix(1 0 0 -1 241 266)" fill="#6F543D"/>
<rect width="14" height="14" transform="matrix(1 0 0 -1 220 240)" fill="#6F543D"/>
<rect width="14" height="14" transform="matrix(1 0 0 -1 269 223)" fill="#6F543D"/>
<rect width="14" height="14" transform="matrix(1 0 0 -1 213 380)" fill="#664B3A"/>
<rect width="14" height="14" transform="matrix(1 0 0 -1 216 340)" fill="#664B3A"/>
<rect width="14" height="14" transform="matrix(1 0 0 -1 195 310)" fill="#664B3A"/>
<rect width="14" height="14" transform="matrix(1 0 0 -1 216 280)" fill="#664B3A"/>
<rect width="14" height="14" transform="matrix(1 0 0 -1 202 209)" fill="#664B3A"/>
<rect width="14" height="14" transform="matrix(1 0 0 -1 223 179)" fill="#6F543D"/>
<rect width="14" height="14" transform="matrix(1 0 0 -1 248 135)" fill="#6F543D"/>
<rect width="14" height="14" transform="matrix(1 0 0 -1 227 150)" fill="#6F543D"/>
<rect width="14" height="14" transform="matrix(1 0 0 -1 255 188)" fill="#6F543D"/>
<rect width="14" height="14" transform="matrix(1 0 0 -1 213 170)" fill="#664B3A"/>
<rect width="14" height="14" transform="matrix(1 0 0 -1 216 130)" fill="#664B3A"/>
</svg>
