<svg width="315" height="1117" viewBox="0 0 315 1117" fill="none" xmlns="http://www.w3.org/2000/svg">
<rect x="25" width="266" height="1117" fill="#664B3A"/>
<rect x="93" width="130" height="1117" fill="#6F543D"/>
<rect width="14" height="14" transform="matrix(-1 0 0 1 95 14)" fill="#6F543D"/>
<rect width="14" height="14" transform="matrix(-1 0 0 1 70 58)" fill="#6F543D"/>
<rect width="14" height="14" transform="matrix(-1 0 0 1 91 43)" fill="#6F543D"/>
<rect width="14" height="14" transform="matrix(-1 0 0 1 84 79)" fill="#6F543D"/>
<rect width="14" height="14" transform="matrix(-1 0 0 1 61 104)" fill="#6F543D"/>
<rect width="14" height="14" transform="matrix(-1 0 0 1 95 102)" fill="#6F543D"/>
<rect width="14" height="14" transform="matrix(-1 0 0 1 77 137)" fill="#6F543D"/>
<rect width="14" height="14" transform="matrix(-1 0 0 1 98 163)" fill="#6F543D"/>
<rect width="14" height="14" transform="matrix(-1 0 0 1 49 180)" fill="#6F543D"/>
<rect width="14" height="14" transform="matrix(-1 0 0 1 63 5)" fill="#6F543D"/>
<rect width="14" height="14" transform="matrix(-1 0 0 1 105 23)" fill="#664B3A"/>
<rect width="14" height="14" transform="matrix(-1 0 0 1 102 63)" fill="#664B3A"/>
<rect width="14" height="14" transform="matrix(-1 0 0 1 123 93)" fill="#664B3A"/>
<rect width="14" height="14" transform="matrix(-1 0 0 1 25 0)" fill="#664B3A"/>
<rect width="14" height="14" transform="matrix(-1 0 0 1 32 36)" fill="#664B3A"/>
<rect width="14" height="14" transform="matrix(-1 0 0 1 21 90)" fill="#664B3A"/>
<rect width="14" height="14" transform="matrix(-1 0 0 1 30 141)" fill="#664B3A"/>
<rect width="14" height="14" transform="matrix(-1 0 0 1 14 169)" fill="#664B3A"/>
<rect width="14" height="14" transform="matrix(-1 0 0 1 30 51)" fill="#3F8431"/>
<rect width="14" height="14" transform="matrix(-1 0 0 1 28 116)" fill="#3F8431"/>
<rect width="14" height="14" transform="matrix(-1 0 0 1 35 162)" fill="#3F8431"/>
<rect width="14" height="14" transform="matrix(-1 0 0 1 35 222)" fill="#3F8431"/>
<rect width="14" height="14" transform="matrix(-1 0 0 1 28 255)" fill="#3F8431"/>
<rect width="14" height="14" transform="matrix(-1 0 0 1 30 339)" fill="#3F8431"/>
<rect width="14" height="14" transform="matrix(-1 0 0 1 28 404)" fill="#3F8431"/>
<rect width="14" height="14" transform="matrix(-1 0 0 1 35 450)" fill="#3F8431"/>
<rect width="14" height="14" transform="matrix(-1 0 0 1 35 510)" fill="#3F8431"/>
<rect width="14" height="14" transform="matrix(-1 0 0 1 28 543)" fill="#3F8431"/>
<rect width="14" height="14" transform="matrix(-1 0 0 1 30 629)" fill="#3F8431"/>
<rect width="14" height="14" transform="matrix(-1 0 0 1 28 694)" fill="#3F8431"/>
<rect width="14" height="14" transform="matrix(-1 0 0 1 35 740)" fill="#3F8431"/>
<rect width="14" height="14" transform="matrix(-1 0 0 1 35 800)" fill="#3F8431"/>
<rect width="14" height="14" transform="matrix(-1 0 0 1 28 833)" fill="#3F8431"/>
<rect width="14" height="14" transform="matrix(-1 0 0 1 30 890)" fill="#3F8431"/>
<rect width="14" height="14" transform="matrix(-1 0 0 1 28 955)" fill="#3F8431"/>
<rect width="14" height="14" transform="matrix(-1 0 0 1 35 1001)" fill="#3F8431"/>
<rect width="14" height="14" transform="matrix(-1 0 0 1 35 1061)" fill="#3F8431"/>
<rect width="14" height="14" transform="matrix(-1 0 0 1 28 1094)" fill="#3F8431"/>
<rect width="14" height="14" transform="matrix(1 0 0 -1 284 1108)" fill="#3F8431"/>
<rect width="14" height="14" transform="matrix(1 0 0 -1 286 1043)" fill="#3F8431"/>
<rect width="14" height="14" transform="matrix(1 0 0 -1 279 997)" fill="#3F8431"/>
<rect width="14" height="14" transform="matrix(1 0 0 -1 279 937)" fill="#3F8431"/>
<rect width="14" height="14" transform="matrix(1 0 0 -1 286 904)" fill="#3F8431"/>
<rect width="14" height="14" transform="matrix(1 0 0 -1 284 820)" fill="#3F8431"/>
<rect width="14" height="14" transform="matrix(1 0 0 -1 286 755)" fill="#3F8431"/>
<rect width="14" height="14" transform="matrix(1 0 0 -1 279 709)" fill="#3F8431"/>
<rect width="14" height="14" transform="matrix(1 0 0 -1 279 649)" fill="#3F8431"/>
<rect width="14" height="14" transform="matrix(1 0 0 -1 286 616)" fill="#3F8431"/>
<rect width="14" height="14" transform="matrix(1 0 0 -1 284 530)" fill="#3F8431"/>
<rect width="14" height="14" transform="matrix(1 0 0 -1 286 465)" fill="#3F8431"/>
<rect width="14" height="14" transform="matrix(1 0 0 -1 279 419)" fill="#3F8431"/>
<rect width="14" height="14" transform="matrix(1 0 0 -1 279 359)" fill="#3F8431"/>
<rect width="14" height="14" transform="matrix(1 0 0 -1 286 326)" fill="#3F8431"/>
<rect width="14" height="14" transform="matrix(1 0 0 -1 284 269)" fill="#3F8431"/>
<rect width="14" height="14" transform="matrix(1 0 0 -1 286 204)" fill="#3F8431"/>
<rect width="14" height="14" transform="matrix(1 0 0 -1 279 158)" fill="#3F8431"/>
<rect width="14" height="14" transform="matrix(1 0 0 -1 279 98)" fill="#3F8431"/>
<rect width="14" height="14" transform="matrix(1 0 0 -1 286 65)" fill="#3F8431"/>
<rect width="14" height="14" transform="matrix(-1 0 0 1 28 234)" fill="#664B3A"/>
<rect width="14" height="14" transform="matrix(-1 0 0 1 25 282)" fill="#664B3A"/>
<rect width="14" height="14" transform="matrix(-1 0 0 1 32 318)" fill="#664B3A"/>
<rect width="14" height="14" transform="matrix(-1 0 0 1 21 372)" fill="#664B3A"/>
<rect width="14" height="14" transform="matrix(-1 0 0 1 30 423)" fill="#664B3A"/>
<rect width="14" height="14" transform="matrix(-1 0 0 1 14 451)" fill="#664B3A"/>
<rect width="14" height="14" transform="matrix(-1 0 0 1 28 516)" fill="#664B3A"/>
<rect width="14" height="14" transform="matrix(-1 0 0 1 25 563)" fill="#664B3A"/>
<rect width="14" height="14" transform="matrix(-1 0 0 1 32 599)" fill="#664B3A"/>
<rect width="14" height="14" transform="matrix(-1 0 0 1 21 653)" fill="#664B3A"/>
<rect width="14" height="14" transform="matrix(-1 0 0 1 30 704)" fill="#664B3A"/>
<rect width="14" height="14" transform="matrix(-1 0 0 1 14 732)" fill="#664B3A"/>
<rect width="14" height="14" transform="matrix(-1 0 0 1 28 797)" fill="#664B3A"/>
<rect width="14" height="14" transform="matrix(-1 0 0 1 25 845)" fill="#664B3A"/>
<rect width="14" height="14" transform="matrix(-1 0 0 1 32 881)" fill="#664B3A"/>
<rect width="14" height="14" transform="matrix(-1 0 0 1 21 935)" fill="#664B3A"/>
<rect width="14" height="14" transform="matrix(-1 0 0 1 30 986)" fill="#664B3A"/>
<rect width="14" height="14" transform="matrix(-1 0 0 1 14 1014)" fill="#664B3A"/>
<rect width="14" height="14" transform="matrix(-1 0 0 1 28 1079)" fill="#664B3A"/>
<rect width="14" height="14" transform="matrix(1 0 0 -1 290 1093)" fill="#664B3A"/>
<rect width="14" height="14" transform="matrix(1 0 0 -1 283 1057)" fill="#664B3A"/>
<rect width="14" height="14" transform="matrix(1 0 0 -1 294 1003)" fill="#664B3A"/>
<rect width="14" height="14" transform="matrix(1 0 0 -1 285 952)" fill="#664B3A"/>
<rect width="14" height="14" transform="matrix(1 0 0 -1 301 924)" fill="#664B3A"/>
<rect width="14" height="14" transform="matrix(1 0 0 -1 287 859)" fill="#664B3A"/>
<rect width="14" height="14" transform="matrix(1 0 0 -1 290 811)" fill="#664B3A"/>
<rect width="14" height="14" transform="matrix(1 0 0 -1 283 775)" fill="#664B3A"/>
<rect width="14" height="14" transform="matrix(1 0 0 -1 294 721)" fill="#664B3A"/>
<rect width="14" height="14" transform="matrix(1 0 0 -1 285 670)" fill="#664B3A"/>
<rect width="14" height="14" transform="matrix(1 0 0 -1 301 642)" fill="#664B3A"/>
<rect width="14" height="14" transform="matrix(1 0 0 -1 287 577)" fill="#664B3A"/>
<rect width="14" height="14" transform="matrix(1 0 0 -1 290 530)" fill="#664B3A"/>
<rect width="14" height="14" transform="matrix(1 0 0 -1 283 494)" fill="#664B3A"/>
<rect width="14" height="14" transform="matrix(1 0 0 -1 294 440)" fill="#664B3A"/>
<rect width="14" height="14" transform="matrix(1 0 0 -1 285 389)" fill="#664B3A"/>
<rect width="14" height="14" transform="matrix(1 0 0 -1 301 361)" fill="#664B3A"/>
<rect width="14" height="14" transform="matrix(1 0 0 -1 287 296)" fill="#664B3A"/>
<rect width="14" height="14" transform="matrix(1 0 0 -1 290 248)" fill="#664B3A"/>
<rect width="14" height="14" transform="matrix(1 0 0 -1 283 212)" fill="#664B3A"/>
<rect width="14" height="14" transform="matrix(1 0 0 -1 294 158)" fill="#664B3A"/>
<rect width="14" height="14" transform="matrix(1 0 0 -1 285 107)" fill="#664B3A"/>
<rect width="14" height="14" transform="matrix(1 0 0 -1 301 79)" fill="#664B3A"/>
<rect width="14" height="14" transform="matrix(1 0 0 -1 287 14)" fill="#664B3A"/>
<rect width="14" height="14" transform="matrix(-1 0 0 1 102 123)" fill="#664B3A"/>
<rect width="14" height="14" transform="matrix(-1 0 0 1 116 194)" fill="#664B3A"/>
<rect width="14" height="14" transform="matrix(-1 0 0 1 95 224)" fill="#6F543D"/>
<rect width="14" height="14" transform="matrix(-1 0 0 1 70 268)" fill="#6F543D"/>
<rect width="14" height="14" transform="matrix(-1 0 0 1 91 253)" fill="#6F543D"/>
<rect width="14" height="14" transform="matrix(-1 0 0 1 84 289)" fill="#6F543D"/>
<rect width="14" height="14" transform="matrix(-1 0 0 1 61 314)" fill="#6F543D"/>
<rect width="14" height="14" transform="matrix(-1 0 0 1 95 312)" fill="#6F543D"/>
<rect width="14" height="14" transform="matrix(-1 0 0 1 77 347)" fill="#6F543D"/>
<rect width="14" height="14" transform="matrix(-1 0 0 1 98 373)" fill="#6F543D"/>
<rect width="14" height="14" transform="matrix(-1 0 0 1 49 390)" fill="#6F543D"/>
<rect width="14" height="14" transform="matrix(-1 0 0 1 63 215)" fill="#6F543D"/>
<rect width="14" height="14" transform="matrix(-1 0 0 1 105 233)" fill="#664B3A"/>
<rect width="14" height="14" transform="matrix(-1 0 0 1 102 273)" fill="#664B3A"/>
<rect width="14" height="14" transform="matrix(-1 0 0 1 123 303)" fill="#664B3A"/>
<rect width="14" height="14" transform="matrix(-1 0 0 1 102 333)" fill="#664B3A"/>
<rect width="14" height="14" transform="matrix(-1 0 0 1 116 404)" fill="#664B3A"/>
<rect width="14" height="14" transform="matrix(-1 0 0 1 95 431)" fill="#6F543D"/>
<rect width="14" height="14" transform="matrix(-1 0 0 1 70 475)" fill="#6F543D"/>
<rect width="14" height="14" transform="matrix(-1 0 0 1 91 460)" fill="#6F543D"/>
<rect width="14" height="14" transform="matrix(-1 0 0 1 84 496)" fill="#6F543D"/>
<rect width="14" height="14" transform="matrix(-1 0 0 1 61 521)" fill="#6F543D"/>
<rect width="14" height="14" transform="matrix(-1 0 0 1 95 519)" fill="#6F543D"/>
<rect width="14" height="14" transform="matrix(-1 0 0 1 77 554)" fill="#6F543D"/>
<rect width="14" height="14" transform="matrix(-1 0 0 1 98 580)" fill="#6F543D"/>
<rect width="14" height="14" transform="matrix(-1 0 0 1 49 597)" fill="#6F543D"/>
<rect width="14" height="14" transform="matrix(-1 0 0 1 63 422)" fill="#6F543D"/>
<rect width="14" height="14" transform="matrix(-1 0 0 1 105 440)" fill="#664B3A"/>
<rect width="14" height="14" transform="matrix(-1 0 0 1 102 480)" fill="#664B3A"/>
<rect width="14" height="14" transform="matrix(-1 0 0 1 123 510)" fill="#664B3A"/>
<rect width="14" height="14" transform="matrix(-1 0 0 1 102 540)" fill="#664B3A"/>
<rect width="14" height="14" transform="matrix(-1 0 0 1 116 611)" fill="#664B3A"/>
<rect width="14" height="14" transform="matrix(-1 0 0 1 95 641)" fill="#6F543D"/>
<rect width="14" height="14" transform="matrix(-1 0 0 1 70 685)" fill="#6F543D"/>
<rect width="14" height="14" transform="matrix(-1 0 0 1 91 670)" fill="#6F543D"/>
<rect width="14" height="14" transform="matrix(-1 0 0 1 84 706)" fill="#6F543D"/>
<rect width="14" height="14" transform="matrix(-1 0 0 1 61 731)" fill="#6F543D"/>
<rect width="14" height="14" transform="matrix(-1 0 0 1 95 729)" fill="#6F543D"/>
<rect width="14" height="14" transform="matrix(-1 0 0 1 77 764)" fill="#6F543D"/>
<rect width="14" height="14" transform="matrix(-1 0 0 1 98 790)" fill="#6F543D"/>
<rect width="14" height="14" transform="matrix(-1 0 0 1 49 807)" fill="#6F543D"/>
<rect width="14" height="14" transform="matrix(-1 0 0 1 63 632)" fill="#6F543D"/>
<rect width="14" height="14" transform="matrix(-1 0 0 1 105 650)" fill="#664B3A"/>
<rect width="14" height="14" transform="matrix(-1 0 0 1 102 690)" fill="#664B3A"/>
<rect width="14" height="14" transform="matrix(-1 0 0 1 123 720)" fill="#664B3A"/>
<rect width="14" height="14" transform="matrix(-1 0 0 1 102 750)" fill="#664B3A"/>
<rect width="14" height="14" transform="matrix(-1 0 0 1 116 821)" fill="#664B3A"/>
<rect width="14" height="14" transform="matrix(-1 0 0 1 95 845)" fill="#6F543D"/>
<rect width="14" height="14" transform="matrix(-1 0 0 1 70 889)" fill="#6F543D"/>
<rect width="14" height="14" transform="matrix(-1 0 0 1 91 874)" fill="#6F543D"/>
<rect width="14" height="14" transform="matrix(-1 0 0 1 84 910)" fill="#6F543D"/>
<rect width="14" height="14" transform="matrix(-1 0 0 1 61 935)" fill="#6F543D"/>
<rect width="14" height="14" transform="matrix(-1 0 0 1 95 933)" fill="#6F543D"/>
<rect width="14" height="14" transform="matrix(-1 0 0 1 77 968)" fill="#6F543D"/>
<rect width="14" height="14" transform="matrix(-1 0 0 1 98 994)" fill="#6F543D"/>
<rect width="14" height="14" transform="matrix(-1 0 0 1 49 1011)" fill="#6F543D"/>
<rect width="14" height="14" transform="matrix(-1 0 0 1 63 836)" fill="#6F543D"/>
<rect width="14" height="14" transform="matrix(-1 0 0 1 105 854)" fill="#664B3A"/>
<rect width="14" height="14" transform="matrix(-1 0 0 1 102 894)" fill="#664B3A"/>
<rect width="14" height="14" transform="matrix(-1 0 0 1 123 924)" fill="#664B3A"/>
<rect width="14" height="14" transform="matrix(-1 0 0 1 102 954)" fill="#664B3A"/>
<rect width="14" height="14" transform="matrix(-1 0 0 1 116 1025)" fill="#664B3A"/>
<rect width="14" height="14" transform="matrix(-1 0 0 1 95 1055)" fill="#6F543D"/>
<rect width="14" height="14" transform="matrix(-1 0 0 1 70 1099)" fill="#6F543D"/>
<rect width="14" height="14" transform="matrix(-1 0 0 1 91 1084)" fill="#6F543D"/>
<rect width="14" height="14" transform="matrix(-1 0 0 1 63 1046)" fill="#6F543D"/>
<rect width="14" height="14" transform="matrix(-1 0 0 1 105 1064)" fill="#664B3A"/>
<rect width="14" height="14" transform="matrix(-1 0 0 1 102 1104)" fill="#664B3A"/>
<rect width="14" height="14" transform="matrix(1 0 0 -1 223 1109)" fill="#6F543D"/>
<rect width="14" height="14" transform="matrix(1 0 0 -1 248 1065)" fill="#6F543D"/>
<rect width="14" height="14" transform="matrix(1 0 0 -1 227 1080)" fill="#6F543D"/>
<rect width="14" height="14" transform="matrix(1 0 0 -1 234 1044)" fill="#6F543D"/>
<rect width="14" height="14" transform="matrix(1 0 0 -1 257 1019)" fill="#6F543D"/>
<rect width="14" height="14" transform="matrix(1 0 0 -1 223 1021)" fill="#6F543D"/>
<rect width="14" height="14" transform="matrix(1 0 0 -1 241 986)" fill="#6F543D"/>
<rect width="14" height="14" transform="matrix(1 0 0 -1 220 960)" fill="#6F543D"/>
<rect width="14" height="14" transform="matrix(1 0 0 -1 269 943)" fill="#6F543D"/>
<rect width="14" height="14" transform="matrix(1 0 0 -1 255 1118)" fill="#6F543D"/>
<rect width="14" height="14" transform="matrix(1 0 0 -1 213 1100)" fill="#664B3A"/>
<rect width="14" height="14" transform="matrix(1 0 0 -1 216 1060)" fill="#664B3A"/>
<rect width="14" height="14" transform="matrix(1 0 0 -1 195 1030)" fill="#664B3A"/>
<rect width="14" height="14" transform="matrix(1 0 0 -1 216 1000)" fill="#664B3A"/>
<rect width="14" height="14" transform="matrix(1 0 0 -1 202 929)" fill="#664B3A"/>
<rect width="14" height="14" transform="matrix(1 0 0 -1 223 899)" fill="#6F543D"/>
<rect width="14" height="14" transform="matrix(1 0 0 -1 248 855)" fill="#6F543D"/>
<rect width="14" height="14" transform="matrix(1 0 0 -1 227 870)" fill="#6F543D"/>
<rect width="14" height="14" transform="matrix(1 0 0 -1 234 834)" fill="#6F543D"/>
<rect width="14" height="14" transform="matrix(1 0 0 -1 257 809)" fill="#6F543D"/>
<rect width="14" height="14" transform="matrix(1 0 0 -1 223 811)" fill="#6F543D"/>
<rect width="14" height="14" transform="matrix(1 0 0 -1 241 776)" fill="#6F543D"/>
<rect width="14" height="14" transform="matrix(1 0 0 -1 220 750)" fill="#6F543D"/>
<rect width="14" height="14" transform="matrix(1 0 0 -1 269 733)" fill="#6F543D"/>
<rect width="14" height="14" transform="matrix(1 0 0 -1 255 908)" fill="#6F543D"/>
<rect width="14" height="14" transform="matrix(1 0 0 -1 213 890)" fill="#664B3A"/>
<rect width="14" height="14" transform="matrix(1 0 0 -1 216 850)" fill="#664B3A"/>
<rect width="14" height="14" transform="matrix(1 0 0 -1 195 820)" fill="#664B3A"/>
<rect width="14" height="14" transform="matrix(1 0 0 -1 216 790)" fill="#664B3A"/>
<rect width="14" height="14" transform="matrix(1 0 0 -1 202 719)" fill="#664B3A"/>
<rect width="14" height="14" transform="matrix(1 0 0 -1 223 692)" fill="#6F543D"/>
<rect width="14" height="14" transform="matrix(1 0 0 -1 248 648)" fill="#6F543D"/>
<rect width="14" height="14" transform="matrix(1 0 0 -1 227 663)" fill="#6F543D"/>
<rect width="14" height="14" transform="matrix(1 0 0 -1 234 627)" fill="#6F543D"/>
<rect width="14" height="14" transform="matrix(1 0 0 -1 257 602)" fill="#6F543D"/>
<rect width="14" height="14" transform="matrix(1 0 0 -1 223 604)" fill="#6F543D"/>
<rect width="14" height="14" transform="matrix(1 0 0 -1 241 569)" fill="#6F543D"/>
<rect width="14" height="14" transform="matrix(1 0 0 -1 220 543)" fill="#6F543D"/>
<rect width="14" height="14" transform="matrix(1 0 0 -1 269 526)" fill="#6F543D"/>
<rect width="14" height="14" transform="matrix(1 0 0 -1 255 701)" fill="#6F543D"/>
<rect width="14" height="14" transform="matrix(1 0 0 -1 213 683)" fill="#664B3A"/>
<rect width="14" height="14" transform="matrix(1 0 0 -1 216 643)" fill="#664B3A"/>
<rect width="14" height="14" transform="matrix(1 0 0 -1 195 613)" fill="#664B3A"/>
<rect width="14" height="14" transform="matrix(1 0 0 -1 216 583)" fill="#664B3A"/>
<rect width="14" height="14" transform="matrix(1 0 0 -1 202 512)" fill="#664B3A"/>
<rect width="14" height="14" transform="matrix(1 0 0 -1 223 482)" fill="#6F543D"/>
<rect width="14" height="14" transform="matrix(1 0 0 -1 248 438)" fill="#6F543D"/>
<rect width="14" height="14" transform="matrix(1 0 0 -1 227 453)" fill="#6F543D"/>
<rect width="14" height="14" transform="matrix(1 0 0 -1 234 417)" fill="#6F543D"/>
<rect width="14" height="14" transform="matrix(1 0 0 -1 257 392)" fill="#6F543D"/>
<rect width="14" height="14" transform="matrix(1 0 0 -1 223 394)" fill="#6F543D"/>
<rect width="14" height="14" transform="matrix(1 0 0 -1 241 359)" fill="#6F543D"/>
<rect width="14" height="14" transform="matrix(1 0 0 -1 220 333)" fill="#6F543D"/>
<rect width="14" height="14" transform="matrix(1 0 0 -1 269 316)" fill="#6F543D"/>
<rect width="14" height="14" transform="matrix(1 0 0 -1 255 491)" fill="#6F543D"/>
<rect width="14" height="14" transform="matrix(1 0 0 -1 213 473)" fill="#664B3A"/>
<rect width="14" height="14" transform="matrix(1 0 0 -1 216 433)" fill="#664B3A"/>
<rect width="14" height="14" transform="matrix(1 0 0 -1 195 403)" fill="#664B3A"/>
<rect width="14" height="14" transform="matrix(1 0 0 -1 216 373)" fill="#664B3A"/>
<rect width="14" height="14" transform="matrix(1 0 0 -1 202 302)" fill="#664B3A"/>
<rect width="14" height="14" transform="matrix(1 0 0 -1 223 278)" fill="#6F543D"/>
<rect width="14" height="14" transform="matrix(1 0 0 -1 248 234)" fill="#6F543D"/>
<rect width="14" height="14" transform="matrix(1 0 0 -1 227 249)" fill="#6F543D"/>
<rect width="14" height="14" transform="matrix(1 0 0 -1 234 213)" fill="#6F543D"/>
<rect width="14" height="14" transform="matrix(1 0 0 -1 257 188)" fill="#6F543D"/>
<rect width="14" height="14" transform="matrix(1 0 0 -1 223 190)" fill="#6F543D"/>
<rect width="14" height="14" transform="matrix(1 0 0 -1 241 155)" fill="#6F543D"/>
<rect width="14" height="14" transform="matrix(1 0 0 -1 220 129)" fill="#6F543D"/>
<rect width="14" height="14" transform="matrix(1 0 0 -1 269 112)" fill="#6F543D"/>
<rect width="14" height="14" transform="matrix(1 0 0 -1 255 287)" fill="#6F543D"/>
<rect width="14" height="14" transform="matrix(1 0 0 -1 213 269)" fill="#664B3A"/>
<rect width="14" height="14" transform="matrix(1 0 0 -1 216 229)" fill="#664B3A"/>
<rect width="14" height="14" transform="matrix(1 0 0 -1 195 199)" fill="#664B3A"/>
<rect width="14" height="14" transform="matrix(1 0 0 -1 216 169)" fill="#664B3A"/>
<rect width="14" height="14" transform="matrix(1 0 0 -1 202 98)" fill="#664B3A"/>
<rect width="14" height="14" transform="matrix(1 0 0 -1 223 68)" fill="#6F543D"/>
<rect width="14" height="14" transform="matrix(1 0 0 -1 248 24)" fill="#6F543D"/>
<rect width="14" height="14" transform="matrix(1 0 0 -1 227 39)" fill="#6F543D"/>
<rect width="14" height="14" transform="matrix(1 0 0 -1 255 77)" fill="#6F543D"/>
<rect width="14" height="14" transform="matrix(1 0 0 -1 213 59)" fill="#664B3A"/>
<rect width="14" height="14" transform="matrix(1 0 0 -1 216 19)" fill="#664B3A"/>
</svg>
