<svg width="1728" height="1117" viewBox="0 0 1728 1117" fill="none" xmlns="http://www.w3.org/2000/svg">
<rect width="1728" height="1117" fill="#3F8431"/>
<rect x="1560" y="1044" width="14" height="14" fill="#51A440"/>
<rect x="1588" y="1044" width="14" height="14" fill="#51A440"/>
<rect x="1574" y="1029" width="14" height="14" fill="#51A440"/>
<rect x="1567" y="277" width="14" height="14" fill="#51A440"/>
<rect x="1595" y="277" width="14" height="14" fill="#51A440"/>
<rect x="1581" y="262" width="14" height="14" fill="#51A440"/>
<rect x="1666" y="235" width="14" height="14" fill="#51A440"/>
<rect x="1694" y="235" width="14" height="14" fill="#51A440"/>
<rect x="1680" y="220" width="14" height="14" fill="#51A440"/>
<rect x="1666" y="514" width="14" height="14" fill="#51A440"/>
<rect x="1694" y="514" width="14" height="14" fill="#51A440"/>
<rect x="1680" y="499" width="14" height="14" fill="#51A440"/>
<rect x="1616" y="356" width="14" height="14" fill="#51A440"/>
<rect x="1644" y="356" width="14" height="14" fill="#51A440"/>
<rect x="1630" y="341" width="14" height="14" fill="#51A440"/>
<rect x="1630" y="76" width="14" height="14" fill="#51A440"/>
<rect x="1658" y="76" width="14" height="14" fill="#51A440"/>
<rect x="1644" y="61" width="14" height="14" fill="#51A440"/>
<rect x="1507" y="188" width="14" height="14" fill="#51A440"/>
<rect x="1535" y="188" width="14" height="14" fill="#51A440"/>
<rect x="1521" y="173" width="14" height="14" fill="#51A440"/>
<rect x="1377" y="105" width="14" height="14" fill="#51A440"/>
<rect x="1405" y="105" width="14" height="14" fill="#51A440"/>
<rect x="1391" y="90" width="14" height="14" fill="#51A440"/>
<rect x="1335" y="241" width="14" height="14" fill="#51A440"/>
<rect x="1363" y="241" width="14" height="14" fill="#51A440"/>
<rect x="1349" y="226" width="14" height="14" fill="#51A440"/>
<rect x="1147" y="390" width="14" height="14" fill="#51A440"/>
<rect x="1175" y="390" width="14" height="14" fill="#51A440"/>
<rect x="1161" y="375" width="14" height="14" fill="#51A440"/>
<rect x="1175" y="242" width="14" height="14" fill="#51A440"/>
<rect x="1203" y="242" width="14" height="14" fill="#51A440"/>
<rect x="1189" y="227" width="14" height="14" fill="#51A440"/>
<rect x="1228" y="594" width="14" height="14" fill="#51A440"/>
<rect x="1256" y="594" width="14" height="14" fill="#51A440"/>
<rect x="1242" y="579" width="14" height="14" fill="#51A440"/>
<rect x="1293" y="342" width="14" height="14" fill="#51A440"/>
<rect x="1321" y="342" width="14" height="14" fill="#51A440"/>
<rect x="1307" y="327" width="14" height="14" fill="#51A440"/>
<rect x="1384" y="485" width="14" height="14" fill="#51A440"/>
<rect x="1412" y="485" width="14" height="14" fill="#51A440"/>
<rect x="1398" y="470" width="14" height="14" fill="#51A440"/>
<rect x="1445" y="632" width="14" height="14" fill="#51A440"/>
<rect x="1473" y="632" width="14" height="14" fill="#51A440"/>
<rect x="1459" y="617" width="14" height="14" fill="#51A440"/>
<rect x="1574" y="744" width="14" height="14" fill="#51A440"/>
<rect x="1602" y="744" width="14" height="14" fill="#51A440"/>
<rect x="1588" y="729" width="14" height="14" fill="#51A440"/>
<rect x="1321" y="730" width="14" height="14" fill="#51A440"/>
<rect x="1349" y="730" width="14" height="14" fill="#51A440"/>
<rect x="1335" y="715" width="14" height="14" fill="#51A440"/>
<rect x="1335" y="835" width="14" height="14" fill="#51A440"/>
<rect x="1363" y="835" width="14" height="14" fill="#51A440"/>
<rect x="1349" y="820" width="14" height="14" fill="#51A440"/>
<rect x="1270" y="942" width="14" height="14" fill="#51A440"/>
<rect x="1298" y="942" width="14" height="14" fill="#51A440"/>
<rect x="1284" y="927" width="14" height="14" fill="#51A440"/>
<rect x="1500" y="849" width="14" height="14" fill="#51A440"/>
<rect x="1528" y="849" width="14" height="14" fill="#51A440"/>
<rect x="1514" y="834" width="14" height="14" fill="#51A440"/>
<rect width="14" height="14" transform="matrix(-1 0 0 1 363 1022)" fill="#51A440"/>
<rect width="14" height="14" transform="matrix(-1 0 0 1 335 1022)" fill="#51A440"/>
<rect width="14" height="14" transform="matrix(-1 0 0 1 349 1007)" fill="#51A440"/>
<rect width="14" height="14" transform="matrix(-1 0 0 1 356 255)" fill="#51A440"/>
<rect width="14" height="14" transform="matrix(-1 0 0 1 328 255)" fill="#51A440"/>
<rect width="14" height="14" transform="matrix(-1 0 0 1 342 240)" fill="#51A440"/>
<rect width="14" height="14" transform="matrix(-1 0 0 1 257 213)" fill="#51A440"/>
<rect width="14" height="14" transform="matrix(-1 0 0 1 229 213)" fill="#51A440"/>
<rect width="14" height="14" transform="matrix(-1 0 0 1 243 198)" fill="#51A440"/>
<rect width="14" height="14" transform="matrix(-1 0 0 1 257 492)" fill="#51A440"/>
<rect width="14" height="14" transform="matrix(-1 0 0 1 229 492)" fill="#51A440"/>
<rect width="14" height="14" transform="matrix(-1 0 0 1 243 477)" fill="#51A440"/>
<rect width="14" height="14" transform="matrix(-1 0 0 1 307 334)" fill="#51A440"/>
<rect width="14" height="14" transform="matrix(-1 0 0 1 279 334)" fill="#51A440"/>
<rect width="14" height="14" transform="matrix(-1 0 0 1 293 319)" fill="#51A440"/>
<rect width="14" height="14" transform="matrix(-1 0 0 1 293 54)" fill="#51A440"/>
<rect width="14" height="14" transform="matrix(-1 0 0 1 265 54)" fill="#51A440"/>
<rect width="14" height="14" transform="matrix(-1 0 0 1 279 39)" fill="#51A440"/>
<rect width="14" height="14" transform="matrix(-1 0 0 1 416 166)" fill="#51A440"/>
<rect width="14" height="14" transform="matrix(-1 0 0 1 388 166)" fill="#51A440"/>
<rect width="14" height="14" transform="matrix(-1 0 0 1 402 151)" fill="#51A440"/>
<rect width="14" height="14" transform="matrix(-1 0 0 1 546 83)" fill="#51A440"/>
<rect width="14" height="14" transform="matrix(-1 0 0 1 518 83)" fill="#51A440"/>
<rect width="14" height="14" transform="matrix(-1 0 0 1 532 68)" fill="#51A440"/>
<rect width="14" height="14" transform="matrix(-1 0 0 1 588 219)" fill="#51A440"/>
<rect width="14" height="14" transform="matrix(-1 0 0 1 560 219)" fill="#51A440"/>
<rect width="14" height="14" transform="matrix(-1 0 0 1 574 204)" fill="#51A440"/>
<rect width="14" height="14" transform="matrix(-1 0 0 1 776 368)" fill="#51A440"/>
<rect width="14" height="14" transform="matrix(-1 0 0 1 748 368)" fill="#51A440"/>
<rect width="14" height="14" transform="matrix(-1 0 0 1 762 353)" fill="#51A440"/>
<rect width="14" height="14" transform="matrix(-1 0 0 1 748 220)" fill="#51A440"/>
<rect width="14" height="14" transform="matrix(-1 0 0 1 720 220)" fill="#51A440"/>
<rect width="14" height="14" transform="matrix(-1 0 0 1 734 205)" fill="#51A440"/>
<rect width="14" height="14" transform="matrix(-1 0 0 1 695 572)" fill="#51A440"/>
<rect width="14" height="14" transform="matrix(-1 0 0 1 667 572)" fill="#51A440"/>
<rect width="14" height="14" transform="matrix(-1 0 0 1 681 557)" fill="#51A440"/>
<rect width="14" height="14" transform="matrix(-1 0 0 1 630 320)" fill="#51A440"/>
<rect width="14" height="14" transform="matrix(-1 0 0 1 602 320)" fill="#51A440"/>
<rect width="14" height="14" transform="matrix(-1 0 0 1 616 305)" fill="#51A440"/>
<rect width="14" height="14" transform="matrix(-1 0 0 1 539 463)" fill="#51A440"/>
<rect width="14" height="14" transform="matrix(-1 0 0 1 511 463)" fill="#51A440"/>
<rect width="14" height="14" transform="matrix(-1 0 0 1 525 448)" fill="#51A440"/>
<rect width="14" height="14" transform="matrix(-1 0 0 1 478 610)" fill="#51A440"/>
<rect width="14" height="14" transform="matrix(-1 0 0 1 450 610)" fill="#51A440"/>
<rect width="14" height="14" transform="matrix(-1 0 0 1 464 595)" fill="#51A440"/>
<rect width="14" height="14" transform="matrix(-1 0 0 1 901 638)" fill="#51A440"/>
<rect width="14" height="14" transform="matrix(-1 0 0 1 873 638)" fill="#51A440"/>
<rect width="14" height="14" transform="matrix(-1 0 0 1 887 623)" fill="#51A440"/>
<rect width="14" height="14" transform="matrix(-1 0 0 1 1008 991)" fill="#51A440"/>
<rect width="14" height="14" transform="matrix(-1 0 0 1 980 991)" fill="#51A440"/>
<rect width="14" height="14" transform="matrix(-1 0 0 1 994 976)" fill="#51A440"/>
<rect width="14" height="14" transform="matrix(-1 0 0 1 943 739)" fill="#51A440"/>
<rect width="14" height="14" transform="matrix(-1 0 0 1 915 739)" fill="#51A440"/>
<rect width="14" height="14" transform="matrix(-1 0 0 1 929 724)" fill="#51A440"/>
<rect width="14" height="14" transform="matrix(-1 0 0 1 791 1029)" fill="#51A440"/>
<rect width="14" height="14" transform="matrix(-1 0 0 1 763 1029)" fill="#51A440"/>
<rect width="14" height="14" transform="matrix(-1 0 0 1 777 1014)" fill="#51A440"/>
<rect width="14" height="14" transform="matrix(-1 0 0 1 349 722)" fill="#51A440"/>
<rect width="14" height="14" transform="matrix(-1 0 0 1 321 722)" fill="#51A440"/>
<rect width="14" height="14" transform="matrix(-1 0 0 1 335 707)" fill="#51A440"/>
<rect width="14" height="14" transform="matrix(-1 0 0 1 602 708)" fill="#51A440"/>
<rect width="14" height="14" transform="matrix(-1 0 0 1 574 708)" fill="#51A440"/>
<rect width="14" height="14" transform="matrix(-1 0 0 1 588 693)" fill="#51A440"/>
<rect width="14" height="14" transform="matrix(-1 0 0 1 588 813)" fill="#51A440"/>
<rect width="14" height="14" transform="matrix(-1 0 0 1 560 813)" fill="#51A440"/>
<rect width="14" height="14" transform="matrix(-1 0 0 1 574 798)" fill="#51A440"/>
<rect width="14" height="14" transform="matrix(-1 0 0 1 653 920)" fill="#51A440"/>
<rect width="14" height="14" transform="matrix(-1 0 0 1 625 920)" fill="#51A440"/>
<rect width="14" height="14" transform="matrix(-1 0 0 1 639 905)" fill="#51A440"/>
<rect width="14" height="14" transform="matrix(-1 0 0 1 423 827)" fill="#51A440"/>
<rect width="14" height="14" transform="matrix(-1 0 0 1 395 827)" fill="#51A440"/>
<rect width="14" height="14" transform="matrix(-1 0 0 1 409 812)" fill="#51A440"/>
<rect width="14" height="14" transform="matrix(-1 0 0 1 951 72)" fill="#51A440"/>
<rect width="14" height="14" transform="matrix(-1 0 0 1 923 72)" fill="#51A440"/>
<rect width="14" height="14" transform="matrix(-1 0 0 1 937 57)" fill="#51A440"/>
<rect width="14" height="14" transform="matrix(-1 0 0 1 1058 425)" fill="#51A440"/>
<rect width="14" height="14" transform="matrix(-1 0 0 1 1030 425)" fill="#51A440"/>
<rect width="14" height="14" transform="matrix(-1 0 0 1 1044 410)" fill="#51A440"/>
<rect width="14" height="14" transform="matrix(-1 0 0 1 993 173)" fill="#51A440"/>
<rect width="14" height="14" transform="matrix(-1 0 0 1 965 173)" fill="#51A440"/>
<rect width="14" height="14" transform="matrix(-1 0 0 1 979 158)" fill="#51A440"/>
<rect width="14" height="14" transform="matrix(-1 0 0 1 841 463)" fill="#51A440"/>
<rect width="14" height="14" transform="matrix(-1 0 0 1 813 463)" fill="#51A440"/>
<rect width="14" height="14" transform="matrix(-1 0 0 1 827 448)" fill="#51A440"/>
<rect width="14" height="14" transform="matrix(-1 0 0 1 186 578)" fill="#51A440"/>
<rect width="14" height="14" transform="matrix(-1 0 0 1 158 578)" fill="#51A440"/>
<rect width="14" height="14" transform="matrix(-1 0 0 1 172 563)" fill="#51A440"/>
<rect width="14" height="14" transform="matrix(-1 0 0 1 293 931)" fill="#51A440"/>
<rect width="14" height="14" transform="matrix(-1 0 0 1 265 931)" fill="#51A440"/>
<rect width="14" height="14" transform="matrix(-1 0 0 1 279 916)" fill="#51A440"/>
<rect width="14" height="14" transform="matrix(-1 0 0 1 228 679)" fill="#51A440"/>
<rect width="14" height="14" transform="matrix(-1 0 0 1 200 679)" fill="#51A440"/>
<rect width="14" height="14" transform="matrix(-1 0 0 1 214 664)" fill="#51A440"/>
<rect width="14" height="14" transform="matrix(-1 0 0 1 90 65)" fill="#51A440"/>
<rect width="14" height="14" transform="matrix(-1 0 0 1 62 65)" fill="#51A440"/>
<rect width="14" height="14" transform="matrix(-1 0 0 1 76 50)" fill="#51A440"/>
<rect width="14" height="14" transform="matrix(-1 0 0 1 132 166)" fill="#51A440"/>
<rect width="14" height="14" transform="matrix(-1 0 0 1 104 166)" fill="#51A440"/>
<rect width="14" height="14" transform="matrix(-1 0 0 1 118 151)" fill="#51A440"/>
<rect width="14" height="14" transform="matrix(-1 0 0 1 76 969)" fill="#51A440"/>
<rect width="14" height="14" transform="matrix(-1 0 0 1 48 969)" fill="#51A440"/>
<rect width="14" height="14" transform="matrix(-1 0 0 1 62 954)" fill="#51A440"/>
</svg>
